<svg width="18" height="19" viewBox="0 0 18 19" fill="none" xmlns="http://www.w3.org/2000/svg">
<g id="call_log">
<mask id="mask0_1_192" style="mask-type:alpha" maskUnits="userSpaceOnUse" x="0" y="0" width="18" height="19">
<rect id="Bounding box" y="0.5" width="18" height="18" fill="#D9D9D9"/>
</mask>
<g mask="url(#mask0_1_192)">
<path id="call_log_2" d="M8.99997 3.5V2H16.5V3.5H8.99997ZM8.99997 6.5V5H16.5V6.5H8.99997ZM8.99997 9.5V8H16.5V9.5H8.99997ZM14.2125 17C12.65 17 11.1062 16.6594 9.58122 15.9781C8.05622 15.2969 6.66872 14.3313 5.41872 13.0813C4.16872 11.8313 3.20309 10.4438 2.52184 8.91875C1.84059 7.39375 1.49997 5.85 1.49997 4.2875C1.49997 4.0625 1.57497 3.875 1.72497 3.725C1.87497 3.575 2.06247 3.5 2.28747 3.5H5.32497C5.49997 3.5 5.65622 3.55938 5.79372 3.67813C5.93122 3.79688 6.01247 3.9375 6.03747 4.1L6.52497 6.725C6.54997 6.925 6.54372 7.09375 6.50622 7.23125C6.46872 7.36875 6.39997 7.4875 6.29997 7.5875L4.48122 9.425C4.73122 9.8875 5.02809 10.3344 5.37184 10.7656C5.71559 11.1969 6.09372 11.6125 6.50622 12.0125C6.89372 12.4 7.29997 12.7594 7.72497 13.0906C8.14997 13.4219 8.59997 13.725 9.07497 14L10.8375 12.2375C10.95 12.125 11.0968 12.0406 11.2781 11.9844C11.4593 11.9281 11.6375 11.9125 11.8125 11.9375L14.4 12.4625C14.575 12.5125 14.7187 12.6031 14.8312 12.7344C14.9437 12.8656 15 13.0125 15 13.175V16.2125C15 16.4375 14.925 16.625 14.775 16.775C14.625 16.925 14.4375 17 14.2125 17ZM3.76872 8L5.00622 6.7625L4.68747 5H3.01872C3.08122 5.5125 3.16872 6.01875 3.28122 6.51875C3.39372 7.01875 3.55622 7.5125 3.76872 8ZM10.4812 14.7125C10.9687 14.925 11.4656 15.0938 11.9718 15.2188C12.4781 15.3438 12.9875 15.425 13.5 15.4625V13.8125L11.7375 13.4563L10.4812 14.7125Z" fill="#2BCF7E"/>
</g>
</g>
</svg>
