<svg width="24" height="25" viewBox="0 0 24 25" fill="none" xmlns="http://www.w3.org/2000/svg">
<g id="Logos/css3-plain">
<path id="Vector" d="M1.64252 0.6875L3.52783 21.8531L11.9875 24.2118L20.4707 21.8444L22.3575 0.6875H1.64252ZM18.4408 5.53662L17.8133 12.5876L17.8151 12.6256L17.8125 12.7132V12.7124L17.3666 17.6426L17.3175 18.0806L12 19.5513V19.5515L11.9959 19.5551L6.68758 18.0761L6.32814 14H8.93121L9.11589 16.0726L12.0008 16.8545L12 16.856V16.8556L14.8956 16.0627L15.2016 12.6875H9.14852L9.09658 12.1169L8.97827 10.7802L8.9162 10.0625H15.4316L15.6686 7.4375H5.74502L5.69308 6.86731L5.57495 5.53025L5.5127 4.8125H18.5029L18.4408 5.53662Z" fill="white"/>
</g>
</svg>
