<svg width="20" height="21" viewBox="0 0 20 21" fill="none" xmlns="http://www.w3.org/2000/svg">
<g id="distance">
<mask id="mask0_1_202" style="mask-type:alpha" maskUnits="userSpaceOnUse" x="0" y="0" width="20" height="21">
<rect id="Bounding box" y="0.5" width="20" height="20" fill="#D9D9D9"/>
</mask>
<g mask="url(#mask0_1_202)">
<path id="distance_2" d="M9.99992 18.8333C8.5277 18.8333 7.32631 18.6007 6.39576 18.1354C5.4652 17.6701 4.99992 17.0694 4.99992 16.3333C4.99992 15.8472 5.20131 15.4236 5.60409 15.0625C6.00687 14.7013 6.56242 14.4166 7.27076 14.2083L7.74992 15.7916C7.51381 15.8611 7.29853 15.9479 7.10409 16.052C6.90965 16.1562 6.7777 16.25 6.70826 16.3333C6.88881 16.5555 7.30548 16.75 7.95826 16.9166C8.61103 17.0833 9.29159 17.1666 9.99992 17.1666C10.7083 17.1666 11.3923 17.0833 12.052 16.9166C12.7117 16.75 13.1319 16.5555 13.3124 16.3333C13.243 16.25 13.111 16.1562 12.9166 16.052C12.7221 15.9479 12.5069 15.8611 12.2708 15.7916L12.7499 14.2083C13.4583 14.4166 14.0103 14.7013 14.4062 15.0625C14.802 15.4236 14.9999 15.8472 14.9999 16.3333C14.9999 17.0694 14.5346 17.6701 13.6041 18.1354C12.6735 18.6007 11.4721 18.8333 9.99992 18.8333ZM9.99992 13.2708C10.2499 12.8125 10.5138 12.3923 10.7916 12.0104C11.0694 11.6284 11.3402 11.2638 11.6041 10.9166C12.118 10.25 12.5277 9.64927 12.8333 9.11454C13.1388 8.57982 13.2916 7.91663 13.2916 7.12496C13.2916 6.20829 12.9721 5.43052 12.3333 4.79163C11.6944 4.15274 10.9166 3.83329 9.99992 3.83329C9.08326 3.83329 8.30548 4.15274 7.66659 4.79163C7.0277 5.43052 6.70826 6.20829 6.70826 7.12496C6.70826 7.91663 6.86103 8.57982 7.16659 9.11454C7.47215 9.64927 7.88187 10.25 8.39576 10.9166C8.65965 11.2638 8.93048 11.6284 9.20826 12.0104C9.48603 12.3923 9.74992 12.8125 9.99992 13.2708ZM9.99992 16.3333C9.84715 16.3333 9.70826 16.2882 9.58326 16.1979C9.45826 16.1076 9.36798 15.9861 9.31242 15.8333C8.99298 14.8472 8.5902 14.0208 8.10409 13.3541C7.61798 12.6875 7.14576 12.0486 6.68742 11.4375C6.24298 10.8263 5.85756 10.1944 5.53117 9.54163C5.20478 8.88885 5.04159 8.08329 5.04159 7.12496C5.04159 5.73607 5.52076 4.56246 6.47909 3.60413C7.43742 2.64579 8.61103 2.16663 9.99992 2.16663C11.3888 2.16663 12.5624 2.64579 13.5208 3.60413C14.4791 4.56246 14.9583 5.73607 14.9583 7.12496C14.9583 8.08329 14.7985 8.88885 14.4791 9.54163C14.1596 10.1944 13.7708 10.8263 13.3124 11.4375C12.868 12.0486 12.3992 12.6875 11.9062 13.3541C11.4131 14.0208 11.0069 14.8472 10.6874 15.8333C10.6319 15.9861 10.5416 16.1076 10.4166 16.1979C10.2916 16.2882 10.1527 16.3333 9.99992 16.3333ZM9.99992 8.89579C10.486 8.89579 10.9027 8.72218 11.2499 8.37496C11.5971 8.02774 11.7708 7.61107 11.7708 7.12496C11.7708 6.63885 11.5971 6.22218 11.2499 5.87496C10.9027 5.52774 10.486 5.35413 9.99992 5.35413C9.51381 5.35413 9.09715 5.52774 8.74992 5.87496C8.4027 6.22218 8.22909 6.63885 8.22909 7.12496C8.22909 7.61107 8.4027 8.02774 8.74992 8.37496C9.09715 8.72218 9.51381 8.89579 9.99992 8.89579Z" fill="#2BCF7E"/>
</g>
</g>
</svg>
