<svg width="24" height="25" viewBox="0 0 24 25" fill="none" xmlns="http://www.w3.org/2000/svg">
<g id="Logos/express-original">
<path id="Vector" d="M23.7506 18.9575C22.8956 19.175 22.3669 18.9669 21.8925 18.2544C20.8275 16.6587 19.6519 15.1362 18.5175 13.5856C18.3713 13.385 18.2194 13.1881 18.03 12.9387C16.6875 14.75 15.3469 16.475 14.0888 18.2694C13.6388 18.9106 13.1663 19.19 12.3263 18.9631L17.3738 12.1887L12.675 6.07062C13.4831 5.91312 14.0419 5.99375 14.5369 6.7175C15.63 8.315 16.8356 9.83562 18.0375 11.4444C19.2469 9.84125 20.4375 8.31875 21.5625 6.73625C22.0144 6.095 22.5 5.85125 23.3119 6.0875C22.6969 6.90312 22.095 7.70562 21.4894 8.5025C20.6719 9.57687 19.8694 10.6644 19.0219 11.7162C18.72 12.0912 18.7688 12.335 19.0388 12.6894C20.6063 14.75 22.155 16.8313 23.7506 18.9575ZM0.249399 12.0763C0.384399 11.3994 0.474399 10.7094 0.661899 10.0456C1.7869 6.0275 6.3994 4.35687 9.56815 6.84687C11.4244 8.3075 11.8856 10.3662 11.7938 12.6875H1.33127C1.17377 16.8519 4.1719 19.3662 7.99315 18.0837C9.33377 17.6337 10.1231 16.5837 10.5188 15.2712C10.7194 14.6131 11.0513 14.51 11.67 14.6975C11.3531 16.34 10.635 17.7125 9.13503 18.5712C6.88503 19.8575 3.67315 19.4412 1.98377 17.6544C0.986274 16.6044 0.562524 15.2975 0.375024 13.8856C0.346899 13.6606 0.288774 13.4394 0.243774 13.2162C0.247524 12.8362 0.249399 12.4562 0.249399 12.0763ZM1.35002 11.7969H10.8056C10.7438 8.78562 8.86877 6.64625 6.30565 6.6275C3.49315 6.605 1.4719 8.69375 1.35002 11.7969Z" fill="white"/>
</g>
</svg>
