<svg width="24" height="24" viewBox="0 0 24 24" fill="none" xmlns="http://www.w3.org/2000/svg">
<g id="github icon">
<path id="Vector" d="M11.6665 1C10.222 1 8.79157 1.29159 7.45699 1.85811C6.1224 2.42464 4.90977 3.25501 3.88833 4.30181C1.82543 6.41593 0.666504 9.28329 0.666504 12.2731C0.666504 17.2558 3.8235 21.4832 8.1905 22.9825C8.7405 23.0727 8.9165 22.7233 8.9165 22.4189V20.5137C5.8695 21.1901 5.2205 19.0031 5.2205 19.0031C4.7145 17.6955 3.9995 17.346 3.9995 17.346C2.9985 16.6471 4.0765 16.6696 4.0765 16.6696C5.1765 16.7485 5.7595 17.8307 5.7595 17.8307C6.7165 19.5442 8.3335 19.037 8.9605 18.7664C9.0595 18.0336 9.3455 17.5376 9.6535 17.2558C7.2115 16.974 4.6485 16.0045 4.6485 11.7094C4.6485 10.4581 5.0665 9.45482 5.7815 8.65443C5.6715 8.37261 5.2865 7.2002 5.8915 5.67834C5.8915 5.67834 6.8155 5.37396 8.9165 6.82819C9.7855 6.58018 10.7315 6.45618 11.6665 6.45618C12.6015 6.45618 13.5475 6.58018 14.4165 6.82819C16.5175 5.37396 17.4415 5.67834 17.4415 5.67834C18.0465 7.2002 17.6615 8.37261 17.5515 8.65443C18.2665 9.45482 18.6845 10.4581 18.6845 11.7094C18.6845 16.0158 16.1105 16.9627 13.6575 17.2445C14.0535 17.594 14.4165 18.2817 14.4165 19.3301V22.4189C14.4165 22.7233 14.5925 23.084 15.1535 22.9825C19.5205 21.4719 22.6665 17.2558 22.6665 12.2731C22.6665 10.7927 22.382 9.32678 21.8292 7.95907C21.2764 6.59135 20.4661 5.34862 19.4447 4.30181C18.4232 3.25501 17.2106 2.42464 15.876 1.85811C14.5414 1.29159 13.111 1 11.6665 1Z" fill="#2BCF7E"/>
</g>
</svg>
