<svg width="24" height="24" viewBox="0 0 24 24" fill="none" xmlns="http://www.w3.org/2000/svg">
<g id="linkedin icon">
<path id="Vector" d="M21.7865 1H1.5465C1.05975 1 0.666504 1.39325 0.666504 1.88V22.12C0.666504 22.6068 1.05975 23 1.5465 23H21.7865C22.2733 23 22.6665 22.6068 22.6665 22.12V1.88C22.6665 1.39325 22.2733 1 21.7865 1ZM7.19225 19.7467H3.928V9.24725H7.19225V19.7467ZM5.5615 7.81175C5.1873 7.81175 4.8215 7.70079 4.51037 7.49289C4.19923 7.28499 3.95672 6.9895 3.81352 6.64379C3.67032 6.29807 3.63285 5.91765 3.70586 5.55064C3.77886 5.18363 3.95906 4.8465 4.22366 4.5819C4.48826 4.3173 4.82538 4.13711 5.19239 4.0641C5.55941 3.9911 5.93982 4.02857 6.28554 4.17177C6.63126 4.31497 6.92675 4.55747 7.13464 4.86861C7.34254 5.17975 7.4535 5.54555 7.4535 5.91975C7.45075 6.96475 6.60375 7.81175 5.5615 7.81175ZM19.4133 19.7467H16.1518V14.64C16.1518 13.4218 16.1298 11.857 14.455 11.857C12.7583 11.857 12.497 13.1825 12.497 14.552V19.7467H9.23825V9.24725H12.3678V10.6827H12.4118C12.8463 9.85775 13.9105 8.986 15.5 8.986C18.8055 8.986 19.4133 11.1612 19.4133 13.9882V19.7467Z" fill="#2BCF7E"/>
</g>
</svg>
