<svg width="20" height="21" viewBox="0 0 20 21" fill="none" xmlns="http://www.w3.org/2000/svg">
<g id="mail">
<mask id="mask0_1_197" style="mask-type:alpha" maskUnits="userSpaceOnUse" x="0" y="0" width="20" height="21">
<rect id="Bounding box" y="0.5" width="20" height="20" fill="#D9D9D9"/>
</mask>
<g mask="url(#mask0_1_197)">
<path id="mail_2" d="M3.83337 16.5C3.42087 16.5 3.06775 16.3531 2.774 16.0594C2.48025 15.7656 2.33337 15.4125 2.33337 15V6C2.33337 5.5875 2.48025 5.23438 2.774 4.94063C3.06775 4.64687 3.42087 4.5 3.83337 4.5H15.8334C16.2459 4.5 16.599 4.64687 16.8927 4.94063C17.1865 5.23438 17.3334 5.5875 17.3334 6V15C17.3334 15.4125 17.1865 15.7656 16.8927 16.0594C16.599 16.3531 16.2459 16.5 15.8334 16.5H3.83337ZM9.83337 11.25L3.83337 7.5V15H15.8334V7.5L9.83337 11.25ZM9.83337 9.75L15.8334 6H3.83337L9.83337 9.75ZM3.83337 7.5V6V15V7.5Z" fill="#2BCF7E"/>
</g>
</g>
</svg>
