<svg width="24" height="25" viewBox="0 0 24 25" fill="none" xmlns="http://www.w3.org/2000/svg">
<g id="Logos/mongodb-plain">
<path id="Vector" fill-rule="evenodd" clip-rule="evenodd" d="M16.967 11.2404C16.8977 10.3423 16.6865 9.47619 16.3929 8.62775C15.7847 6.73325 14.8085 5.05663 13.4336 3.614C13.086 3.24913 12.6993 2.91481 12.4569 2.46069C12.3035 2.17344 12.1575 1.88225 12.008 1.59275L11.9133 1.35406C11.8974 1.40881 11.8873 1.42832 11.8867 1.448C11.8745 1.91994 11.6072 2.24 11.2742 2.53869C10.8997 2.87488 10.5512 3.23975 10.1913 3.59206L9.08491 5.04763C8.78641 5.59606 8.48829 6.1445 8.19016 6.69294L7.59204 8.30863L7.57404 8.33375C7.24479 9.41525 7.08241 10.5271 7.00254 11.6503C6.97254 12.0723 7.00666 12.5006 7.03047 12.9249C7.06441 13.5314 7.16979 14.1277 7.32785 14.7146C7.90197 16.8468 9.0671 18.6155 10.6599 20.1181C10.956 20.3973 11.2597 20.6512 11.5687 20.9169C11.6216 20.7359 11.6638 20.555 11.7118 20.3741C11.7598 20.1939 11.8083 20.0146 11.8408 19.8339C11.8082 20.0146 11.7716 20.1939 11.7354 20.3741L11.5805 20.9169L11.7189 21.3858L11.8472 22.1141L11.9083 22.874C11.9077 23.0283 11.9015 23.183 11.9109 23.3371C11.9132 23.3765 11.9649 23.4129 11.9938 23.4508L12.2518 23.5413L12.5207 23.6459L12.4745 22.9704L12.4725 22.3051L12.5653 21.2917L12.6326 21.071L12.8252 20.7297C13.0629 20.5385 13.3181 20.3649 13.5347 20.1521C13.9265 19.7669 14.3175 19.3769 14.6681 18.9553C15.1245 18.4087 15.5142 17.8097 15.8289 17.171C16.0393 16.7428 16.2373 16.3059 16.4012 15.8583C16.5455 15.4638 16.635 15.0493 16.7488 14.6435C16.7589 14.6143 16.7724 14.5856 16.7788 14.5558C17.0139 13.4606 17.0535 12.3543 16.967 11.2404ZM12.5422 20.4982L12.3913 20.1676L12.5422 20.4982L12.764 20.6876L12.5422 20.4982Z" fill="white"/>
</g>
</svg>
