<svg width="24" height="25" viewBox="0 0 24 25" fill="none" xmlns="http://www.w3.org/2000/svg">
<g id="Logos/mysql-plain">
<path id="Vector" d="M23.527 23.5218L23.0365 23.0461C22.5716 22.4289 21.9737 21.8866 21.3461 21.4364C20.8457 21.0772 19.7222 20.5919 19.5133 20.0098L19.4749 19.9732C19.8298 19.9331 20.2442 19.8048 20.5718 19.7169C21.1219 19.5695 21.576 19.6076 22.1441 19.4609C22.4003 19.3878 22.6877 19.3145 22.8752 19.2414V19.0951C22.6877 18.8006 22.4201 18.4106 22.107 18.1439C21.2878 17.4464 20.4118 16.7495 19.4912 16.1683C18.9806 15.8461 18.3585 15.6367 17.8176 15.3635C17.6355 15.2714 17.3203 15.2236 17.2 15.0706C16.9155 14.7084 16.7635 14.249 16.5441 13.8269C16.0849 12.9425 15.6349 11.9767 15.228 11.0461C14.9505 10.4116 14.77 9.78613 14.4238 9.21688C12.7626 6.48557 10.9748 4.83726 8.20502 3.21688C7.61533 2.87226 6.90583 2.73632 6.15583 2.5582C5.75383 2.53401 5.35127 2.50945 4.94889 2.48488C4.70308 2.38251 4.44752 2.08195 4.21727 1.93607C3.29927 1.35632 0.94558 0.095383 0.265893 1.75326C-0.163295 2.7997 0.907143 3.82045 1.29002 4.35088C1.55908 4.72251 1.90314 5.1397 2.09496 5.55801C2.22152 5.83307 2.24308 6.10888 2.35127 6.3997C2.61714 7.11632 2.84833 7.89595 3.19258 8.55801C3.36639 8.89326 3.55802 9.24613 3.77796 9.54576C3.91258 9.7297 4.14358 9.8107 4.18014 10.0946C3.95439 10.4107 3.94145 10.9016 3.81452 11.3021C3.24264 13.1049 3.45864 15.3459 4.29021 16.6801C4.54521 17.09 5.14633 17.9684 5.97302 17.6313C6.69602 17.3369 6.57789 16.4242 6.78471 15.6191C6.83139 15.4368 6.75002 15.3026 6.93752 15.1801V15.2167C7.12936 15.6618 7.33458 16.101 7.55289 16.5337C8.04039 17.3188 8.84458 18.1391 9.57752 18.6926C9.95758 18.9796 10.3125 19.4758 10.6875 19.6438V19.6248H10.729C10.6339 19.4373 10.4848 19.406 10.3633 19.2866C10.077 19.0061 9.75846 18.6524 9.52202 18.3309C8.85527 17.4258 8.26614 16.433 7.72933 15.4018C7.47283 14.9094 7.24989 14.3651 7.03389 13.8641C6.95083 13.6709 6.95177 13.3781 6.77814 13.2781C6.54133 13.6453 6.19277 13.9419 6.00958 14.3756C5.71689 15.0686 5.6792 15.9138 5.57064 16.79C5.50633 16.8129 5.53502 16.7971 5.49733 16.8264C4.98771 16.7036 4.80883 16.1791 4.61927 15.7289C4.1402 14.5908 4.05133 12.7584 4.47283 11.4485C4.58195 11.1093 5.07489 10.0421 4.87521 9.72876C4.77995 9.41657 4.4657 9.23563 4.29002 8.99695C4.07233 8.70182 3.85521 8.31332 3.70445 7.97245C3.31239 7.08538 3.12958 6.0892 2.71671 5.1922C2.51927 4.76338 2.1857 4.32932 1.91177 3.94832C1.60858 3.52588 1.26883 3.21482 1.03352 2.70426C0.95008 2.52276 0.836455 2.23213 0.960393 2.04557C0.999768 1.91976 1.05546 1.86726 1.17996 1.8262C1.39239 1.66251 1.98302 1.88057 2.20427 1.97226C2.79095 2.21601 3.28071 2.44101 3.77777 2.77026C4.01608 2.92851 4.25758 3.12463 4.54596 3.31213H4.87521C5.39027 3.31213 5.96721 3.35563 6.44852 3.50188C7.29883 3.76045 8.06102 4.16601 8.75327 4.60307C10.8619 5.9347 12.586 7.83182 13.7655 10.0927C13.9553 10.4568 14.0374 10.805 14.2045 11.1911C14.5416 11.9698 14.9665 12.7713 15.3019 13.5328C15.6368 14.2927 15.963 15.0594 16.4363 15.6916C16.6851 16.0239 17.6458 16.2024 18.0825 16.3871C18.3887 16.5163 18.8903 16.6513 19.1801 16.8258C19.7338 17.1599 20.2703 17.5578 20.79 17.9236C21.0495 18.1063 21.8475 18.5075 21.8875 18.8383C20.6006 18.803 19.618 18.923 18.7778 19.2772C18.5391 19.3779 18.1581 19.3807 18.1191 19.6798C18.2503 19.8172 18.2708 20.0227 18.375 20.1918C18.5755 20.5162 18.9143 20.9516 19.2165 21.1796C19.5469 21.4289 19.887 21.6954 20.241 21.9112C20.8708 22.295 21.5736 22.5144 22.18 22.8989C22.5373 23.1258 22.9221 23.4114 23.2703 23.6671C23.4428 23.7937 23.4373 23.9904 23.8123 24.0697V24.0333C23.625 23.8843 23.635 23.6784 23.527 23.5218ZM5.53389 4.8997C5.26558 4.89463 5.06252 4.92913 4.87502 4.97263V5.00001H4.91214C5.04021 5.18751 5.26614 5.43688 5.42421 5.66338L5.79021 6.43363L5.82639 6.39857C6.05308 6.23863 6.15696 5.98401 6.15564 5.59401C6.06508 5.49857 6.05139 5.37913 5.97302 5.26513C5.86839 5.11345 5.66571 5.02738 5.53389 4.8997Z" fill="white"/>
</g>
</svg>
