<svg width="24" height="23" viewBox="0 0 24 23" fill="none" xmlns="http://www.w3.org/2000/svg">
<rect width="24" height="23" fill="#F5F5F5"/>
<g id="Tablet Homepage EN" clip-path="url(#clip0_0_1)">
<rect width="1024" height="4533" transform="translate(-614 -3397)" fill="black"/>
<g id="section">
<g id="Cards">
<g id="Skill card">
<rect x="-534" y="-18" width="864" height="59" rx="12" fill="url(#paint0_linear_0_1)" fill-opacity="0.45"/>
<g id="item">
<g id="react-query-seeklogo 1" clip-path="url(#clip1_0_1)">
<g id="Group">
<path id="Vector" d="M14.8107 14.1711L14.3503 14.9892C14.2117 15.2357 13.9549 15.3876 13.677 15.3876H10.1504C9.87254 15.3876 9.61581 15.2357 9.47713 14.9892L9.01673 14.1711H14.8107ZM16.0995 11.8809L15.2878 13.3233H8.53966L7.72798 11.8809H16.0995ZM15.3176 9.64128L16.1008 11.0331H7.72668L8.50988 9.64128H15.3176ZM13.677 7.52411C13.9549 7.52411 14.2117 7.676 14.3503 7.92245L14.8405 8.79348H8.98694L9.47713 7.92245C9.61581 7.676 9.87254 7.52411 10.1504 7.52411H13.677Z" fill="white"/>
<path id="Vector_2" d="M5.01776 7.14447C4.6271 5.20578 4.54326 3.71883 4.79578 2.63909C4.94597 1.99693 5.22054 1.47306 5.63806 1.0951C6.07884 0.696065 6.63613 0.50026 7.26231 0.50026C8.29531 0.50026 9.38125 0.982359 10.5418 1.89822C11.0151 2.27178 11.5064 2.72205 12.0166 3.24928C12.0572 3.19578 12.1031 3.14531 12.1543 3.09867C13.5968 1.78311 14.8112 0.965744 15.8499 0.65059C16.4675 0.4632 17.0474 0.445347 17.5754 0.627216C18.1328 0.81919 18.577 1.21603 18.8903 1.77187C19.4074 2.68922 19.5438 3.89461 19.351 5.38297C19.2724 5.98964 19.1381 6.65047 18.9483 7.3665C19.0199 7.37535 19.0917 7.3916 19.1627 7.4157C20.9929 8.03641 22.2889 8.7039 23.0735 9.46672C23.5403 9.92058 23.8451 10.4259 23.9553 10.9852C24.0716 11.5755 23.9582 12.1677 23.6452 12.7231C23.1291 13.6391 22.18 14.3616 20.8279 14.9338C20.285 15.1636 19.6707 15.3717 18.9844 15.5588C19.0157 15.6312 19.04 15.7081 19.0563 15.7887C19.4469 17.7274 19.5308 19.2143 19.2782 20.2941C19.1281 20.9362 18.8535 21.4601 18.436 21.838C17.9952 22.2371 17.4379 22.4329 16.8117 22.4329C15.7787 22.4329 14.6928 21.9508 13.5323 21.0349C13.0539 20.6574 12.5572 20.2015 12.0411 19.667C11.988 19.752 11.9228 19.831 11.8457 19.9013C10.4032 21.2169 9.18881 22.0343 8.1501 22.3494C7.53248 22.5368 6.95261 22.5547 6.42456 22.3728C5.86716 22.1808 5.42303 21.784 5.10969 21.2281C4.59255 20.3108 4.45618 19.1054 4.64898 17.617C4.7304 16.9884 4.8717 16.3017 5.07254 15.5556C4.99403 15.5475 4.91521 15.5305 4.83726 15.5041C3.00708 14.8834 1.71113 14.2159 0.926524 13.4531C0.459705 12.9992 0.154867 12.4939 0.0446697 11.9346C-0.0716433 11.3442 0.0417709 10.7521 0.354752 10.1967C0.870921 9.28065 1.82 8.55819 3.17209 7.98596C3.73118 7.74934 4.36594 7.53571 5.07713 7.34426C5.05179 7.28078 5.03178 7.21403 5.01776 7.14447Z" fill="white"/>
<path id="Vector_3" d="M17.7794 15.9792C17.9614 15.9462 18.1358 16.0656 18.1764 16.2488L18.1786 16.2597L18.198 16.3628C18.8271 19.7474 18.3839 21.4397 16.8687 21.4397C15.3861 21.4397 13.4988 19.9957 11.2069 17.1075C11.1562 17.0437 11.1289 16.9638 11.1296 16.8816C11.1312 16.6901 11.2814 16.5356 11.4672 16.5314L11.4779 16.5313L11.5986 16.5322C12.5631 16.5376 13.5007 16.5031 14.4115 16.429C15.4866 16.3414 16.6092 16.1915 17.7794 15.9792ZM7.37304 13.4208L7.37885 13.4308L7.43941 13.539C7.92474 14.4025 8.43039 15.2221 8.95636 15.9978C9.57578 16.9112 10.2723 17.836 11.0461 18.772C11.1658 18.9168 11.1521 19.1317 11.0171 19.2596L11.0083 19.2676L10.9304 19.3362C8.37049 21.581 6.70663 22.0292 5.93885 20.6806C5.18731 19.3606 5.45978 16.9604 6.75627 13.4801C6.78476 13.4036 6.83831 13.3396 6.90776 13.2991C7.07009 13.2042 7.27589 13.259 7.37304 13.4208ZM19.0784 8.42641L19.0889 8.42991L19.1853 8.46396C22.3451 9.58889 23.5456 10.8251 22.7868 12.1727C22.0446 13.4907 19.8871 14.4503 16.3142 15.0515C16.2345 15.0649 16.1527 15.0493 16.0831 15.0074C15.9187 14.9085 15.8638 14.6919 15.9604 14.5236C16.4722 13.6328 16.9331 12.7463 17.3431 11.8643C17.8082 10.8641 18.2446 9.79041 18.6524 8.64337C18.7142 8.46947 18.8959 8.37501 19.0679 8.42328L19.0784 8.42641ZM7.91685 7.86003C8.08126 7.95894 8.13619 8.17554 8.03953 8.3438C7.52779 9.23468 7.0669 10.1211 6.65684 11.0031C6.19179 12.0034 5.75537 13.077 5.34757 14.2241C5.28448 14.4015 5.09665 14.4963 4.92155 14.441L4.91106 14.4375L4.81471 14.4035C1.65489 13.2786 0.454387 12.0423 1.21321 10.6947C1.95537 9.37677 4.1129 8.41718 7.68582 7.81596C7.76549 7.80255 7.84724 7.81815 7.91685 7.86003ZM18.0611 2.31937C18.8127 3.63939 18.5402 6.03956 17.2437 9.51987C17.2152 9.59635 17.1617 9.66034 17.0922 9.70091C16.9299 9.79573 16.7241 9.74098 16.6269 9.5792L16.6211 9.56916L16.5606 9.46099C16.0752 8.59746 15.5696 7.77787 15.0436 7.00221C14.4242 6.08874 13.7276 5.164 12.9539 4.22798C12.8342 4.08317 12.8479 3.86824 12.9829 3.74041L12.9917 3.73237L13.0696 3.6638C15.6295 1.41896 17.2934 0.970818 18.0611 2.31937ZM7.26082 1.51605C8.74337 1.51605 10.6306 2.96012 12.9226 5.84826C12.9733 5.91207 13.0006 5.99196 12.9999 6.07416C12.9982 6.26566 12.8481 6.42024 12.6623 6.42439L12.6515 6.42447L12.5308 6.42359C11.5664 6.41824 10.6287 6.45265 9.71799 6.52684C8.6429 6.61441 7.52026 6.76431 6.35007 6.97655C6.1681 7.00956 5.99372 6.89016 5.9531 6.70698L5.95086 6.69613L5.93147 6.59305C5.30242 3.20838 5.74554 1.51605 7.26082 1.51605Z" fill="#202020"/>
<g id="Group_2">
<path id="Vector_4" d="M10.4337 7.56824H13.394C13.8269 7.56824 14.2268 7.80521 14.4423 8.18949L15.9286 10.8401C16.1424 11.2214 16.1424 11.6902 15.9286 12.0715L14.4423 14.7221C14.2268 15.1064 13.8269 15.3433 13.394 15.3433H10.4337C10.0008 15.3433 9.60096 15.1064 9.38547 14.7221L7.8991 12.0715C7.68528 11.6902 7.68528 11.2214 7.8991 10.8401L9.38547 8.18949C9.60096 7.80521 10.0008 7.56824 10.4337 7.56824ZM12.9428 8.36825C13.376 8.36825 13.776 8.60547 13.9914 8.99006L15.0279 10.8407C15.2413 11.2217 15.2413 11.6899 15.0279 12.0709L13.9914 13.9215C13.776 14.3061 13.376 14.5433 12.9428 14.5433H10.8849C10.4518 14.5433 10.0517 14.3061 9.83632 13.9215L8.79984 12.0709C8.58644 11.6899 8.58644 11.2217 8.79984 10.8407L9.83632 8.99006C10.0517 8.60547 10.4518 8.36825 10.8849 8.36825H12.9428ZM12.4565 9.24326H11.3712C10.9385 9.24326 10.5388 9.48 10.3232 9.86397L9.77552 10.8396C9.5613 11.2211 9.5613 11.6904 9.77552 12.072L10.3232 13.0476C10.5388 13.4316 10.9385 13.6683 11.3712 13.6683H12.4565C12.8892 13.6683 13.2889 13.4316 13.5045 13.0476L14.0522 12.072C14.2664 11.6904 14.2664 11.2211 14.0522 10.8396L13.5045 9.86397C13.2889 9.48 12.8892 9.24326 12.4565 9.24326ZM11.9883 10.0808C12.4207 10.0808 12.8201 10.3172 13.0358 10.7007L13.1134 10.8387C13.3283 11.2207 13.3283 11.6908 13.1134 12.0728L13.0358 12.2109C12.8201 12.5944 12.4207 12.8308 11.9883 12.8308H11.8394C11.4071 12.8308 11.0076 12.5944 10.7919 12.2109L10.7143 12.0728C10.4995 11.6908 10.4995 11.2207 10.7143 10.8387L10.7919 10.7007C11.0076 10.3172 11.4071 10.0808 11.8394 10.0808H11.9883ZM11.9141 10.9058C11.7216 10.9058 11.5441 11.0106 11.4481 11.1808C11.352 11.3509 11.352 11.5606 11.4481 11.7308C11.5441 11.901 11.7216 12.0058 11.9137 12.0058C12.1061 12.0058 12.2836 11.901 12.3797 11.7308C12.4757 11.5606 12.4757 11.3509 12.3797 11.1808C12.2836 11.0106 12.1061 10.9058 11.9141 10.9058ZM7.55383 11.4558H8.52141H7.55383Z" fill="#202020"/>
</g>
</g>
</g>
</g>
</g>
</g>
</g>
</g>
<defs>
<linearGradient id="paint0_linear_0_1" x1="-102" y1="-18" x2="-102" y2="41" gradientUnits="userSpaceOnUse">
<stop stop-color="#202020"/>
<stop offset="1" stop-color="#202020" stop-opacity="0"/>
</linearGradient>
<clipPath id="clip0_0_1">
<rect width="1024" height="4533" fill="white" transform="translate(-614 -3397)"/>
</clipPath>
<clipPath id="clip1_0_1">
<rect width="24" height="22" fill="white" transform="translate(0 0.5)"/>
</clipPath>
</defs>
</svg>
