<svg width="24" height="21" viewBox="0 0 24 21" fill="none" xmlns="http://www.w3.org/2000/svg">
<g id="Group">
<path id="Vector" d="M12 12.6375C13.1805 12.6375 14.1375 11.6805 14.1375 10.5C14.1375 9.31948 13.1805 8.36249 12 8.36249C10.8195 8.36249 9.86249 9.31948 9.86249 10.5C9.86249 11.6805 10.8195 12.6375 12 12.6375Z" fill="white"/>
<path id="Vector_2" d="M20.1188 6.97499C19.7063 6.82499 19.275 6.67499 18.825 6.54374C18.9375 6.09374 19.0313 5.64374 19.1063 5.21249C19.5 2.73749 19.0688 0.993738 17.8688 0.318738C17.5125 0.112488 17.1188 0.0187378 16.6688 0.0187378C15.3563 0.0187378 13.6875 0.993738 12 2.62499C10.3125 0.993738 8.64376 0.0187378 7.33126 0.0187378C6.88126 0.0187378 6.48751 0.112488 6.13126 0.318738C4.93126 1.01249 4.50001 2.75624 4.89376 5.21249C4.96876 5.64374 5.06251 6.09374 5.17501 6.54374C4.72501 6.67499 4.29376 6.80624 3.88126 6.97499C1.53751 7.87499 0.262512 9.11249 0.262512 10.5C0.262512 11.8875 1.55626 13.125 3.88126 14.025C4.29376 14.175 4.72501 14.325 5.17501 14.4562C5.06251 14.9062 4.96876 15.3562 4.89376 15.7875C4.50001 18.2625 4.93126 20.0062 6.13126 20.6812C6.48751 20.8875 6.88126 20.9812 7.33126 20.9812C8.66251 20.9812 10.3313 20.0062 12 18.375C13.6875 20.0062 15.3563 20.9812 16.6688 20.9812C17.1188 20.9812 17.5125 20.8875 17.8688 20.6812C19.0688 19.9875 19.5 18.2437 19.1063 15.7875C19.0313 15.3562 18.9375 14.9062 18.825 14.4562C19.275 14.325 19.7063 14.1937 20.1188 14.025C22.4625 13.125 23.7375 11.8875 23.7375 10.5C23.7375 9.11249 22.4625 7.87499 20.1188 6.97499ZM17.3438 1.25624C18.1125 1.70624 18.375 3.09374 18.0563 5.06249C18 5.45624 17.9063 5.86874 17.7938 6.29999C16.8188 6.07499 15.7875 5.92499 14.7 5.83124C14.0625 4.93124 13.4063 4.12499 12.75 3.39374C14.1375 2.02499 15.5438 1.08749 16.6875 1.08749C16.9313 1.08749 17.1563 1.14374 17.3438 1.25624ZM15.2438 12.375C14.9063 12.975 14.5125 13.575 14.1 14.175C13.4063 14.2312 12.7125 14.25 12 14.25C11.2688 14.25 10.575 14.2312 9.90001 14.175C9.48751 13.575 9.11251 12.975 8.77501 12.375C8.41876 11.7562 8.08126 11.1187 7.78126 10.5C8.08126 9.88124 8.41876 9.24374 8.77501 8.62499C9.11251 8.02499 9.50626 7.42499 9.91876 6.82499C10.6125 6.76874 11.3063 6.74999 12.0188 6.74999C12.75 6.74999 13.4438 6.76874 14.1188 6.82499C14.5313 7.42499 14.9063 8.02499 15.2438 8.62499C15.6 9.24374 15.9375 9.88124 16.2375 10.5C15.9188 11.1187 15.6 11.7375 15.2438 12.375ZM16.8 11.7562C17.0813 12.4125 17.3063 13.05 17.5125 13.6875C16.875 13.8375 16.2 13.95 15.4875 14.0437C15.7125 13.6875 15.9563 13.3125 16.1625 12.9187C16.3875 12.525 16.5938 12.1312 16.8 11.7562ZM12 16.8375C11.55 16.35 11.1188 15.825 10.7063 15.2812C11.1375 15.3 11.5688 15.3187 12 15.3187C12.4313 15.3187 12.8625 15.3 13.2938 15.2812C12.8813 15.825 12.45 16.35 12 16.8375ZM8.51251 14.025C7.80001 13.9312 7.12501 13.8187 6.48751 13.6687C6.69376 13.05 6.91876 12.3937 7.20001 11.7375C7.40626 12.1125 7.61251 12.5062 7.83751 12.8812C8.06251 13.2937 8.28751 13.65 8.51251 14.025ZM7.20001 9.24374C6.91876 8.58749 6.69376 7.94999 6.48751 7.31249C7.12501 7.16249 7.80001 7.04999 8.51251 6.95624C8.28751 7.31249 8.04376 7.68749 7.83751 8.08124C7.61251 8.47499 7.40626 8.86874 7.20001 9.24374ZM12 4.16249C12.45 4.64999 12.8813 5.17499 13.2938 5.71874C12.8625 5.69999 12.4313 5.68124 12 5.68124C11.5688 5.68124 11.1375 5.69999 10.7063 5.71874C11.1188 5.17499 11.55 4.64999 12 4.16249ZM16.1625 8.09999L15.4875 6.97499C16.2 7.06874 16.875 7.18124 17.5125 7.33124C17.3063 7.94999 17.0813 8.60624 16.8 9.26249C16.5938 8.86874 16.3875 8.47499 16.1625 8.09999ZM5.94376 5.06249C5.62501 3.09374 5.88751 1.70624 6.65626 1.25624C6.84376 1.14374 7.06876 1.08749 7.31251 1.08749C8.43751 1.08749 9.84376 2.00624 11.25 3.39374C10.5938 4.10624 9.93751 4.93124 9.30001 5.83124C8.21251 5.92499 7.18126 6.09374 6.20626 6.29999C6.09376 5.86874 6.01876 5.45624 5.94376 5.06249ZM1.31251 10.5C1.31251 9.61874 2.38126 8.68124 4.25626 7.98749C4.63126 7.83749 5.04376 7.70624 5.45626 7.59374C5.75626 8.53124 6.13126 9.52499 6.58126 10.5187C6.13126 11.5125 5.73751 12.4875 5.45626 13.425C2.86876 12.675 1.31251 11.55 1.31251 10.5ZM6.65626 19.7437C5.88751 19.2937 5.62501 17.9062 5.94376 15.9375C6.00001 15.5437 6.09376 15.1312 6.20626 14.7C7.18126 14.925 8.21251 15.075 9.30001 15.1687C9.93751 16.0687 10.5938 16.875 11.25 17.6062C9.86251 18.975 8.45626 19.9125 7.31251 19.9125C7.06876 19.9125 6.84376 19.8562 6.65626 19.7437ZM18.0563 15.9375C18.375 17.9062 18.1125 19.2937 17.3438 19.7437C17.1563 19.8562 16.9313 19.9125 16.6875 19.9125C15.5625 19.9125 14.1563 18.9937 12.75 17.6062C13.4063 16.8937 14.0625 16.0687 14.7 15.1687C15.7875 15.075 16.8188 14.9062 17.7938 14.7C17.9063 15.1312 17.9813 15.5437 18.0563 15.9375ZM19.7438 13.0125C19.3688 13.1625 18.9563 13.2937 18.5438 13.4062C18.2438 12.4687 17.8688 11.475 17.4188 10.4812C17.8688 9.48749 18.2625 8.51249 18.5438 7.57499C21.1313 8.32499 22.6875 9.44999 22.6875 10.5C22.6875 11.3812 21.6 12.3187 19.7438 13.0125Z" fill="white"/>
</g>
</svg>
