<svg width="24" height="25" viewBox="0 0 24 25" fill="none" xmlns="http://www.w3.org/2000/svg">
<g id="Logos/redux-original">
<path id="Vector" d="M16.6293 17.0206C14.9418 20.4706 11.9868 22.7919 8.07747 23.555C7.47806 23.7018 6.86272 23.7736 6.2456 23.7687C3.9956 23.7687 1.9331 22.8312 0.931848 21.2956C-0.412527 19.25 -0.870027 14.9131 3.56247 11.705C3.65247 12.1944 3.83622 12.8656 3.9581 13.2631C3.08797 13.9095 2.37574 14.7449 1.87497 15.7062C1.04997 17.3262 1.14185 18.9444 2.11872 20.4406C2.79372 21.4494 3.86247 22.0625 5.23685 22.25C6.95348 22.4673 8.69497 22.1393 10.215 21.3125C12.5981 20.06 14.1862 18.5637 15.225 16.5181C14.9312 16.2146 14.7574 15.8149 14.7356 15.3931C14.7199 14.9405 14.8844 14.5001 15.1931 14.1686C15.5017 13.8371 15.9292 13.6416 16.3818 13.625H16.4456C16.8858 13.6228 17.3101 13.7899 17.6305 14.0918C17.951 14.3936 18.1432 14.8071 18.1672 15.2467C18.1913 15.6863 18.0455 16.1183 17.76 16.4534C17.4744 16.7885 17.0709 17.0009 16.6331 17.0469L16.6293 17.0206ZM22.005 13.2331C24.2943 15.8281 24.3562 18.8825 23.4712 20.6544C22.6462 22.2725 20.4712 23.8925 17.5462 23.8925C16.1808 23.8646 14.8375 23.5416 13.6087 22.9456C14.0381 22.64 14.6475 22.1506 14.9831 21.845C15.9307 22.2555 16.9505 22.4735 17.9831 22.4862C19.8768 22.4862 21.3112 21.6012 22.1662 19.9831C22.7156 18.9144 22.7475 17.6619 22.2281 16.3794C21.5908 14.7657 20.4568 13.3966 18.99 12.47C17.0656 11.1728 14.797 10.4812 12.4762 10.4844H11.9268C11.7987 10.7803 11.5903 11.0344 11.3252 11.218C11.0601 11.4016 10.7489 11.5073 10.4268 11.5231H10.3687C9.92325 11.5176 9.49747 11.3387 9.1818 11.0243C8.86613 10.71 8.68544 10.2849 8.67812 9.8395C8.6708 9.39406 8.83741 8.9633 9.14258 8.63873C9.44775 8.31416 9.86742 8.12135 10.3125 8.10123H10.3743C10.6845 8.10146 10.9886 8.18716 11.2532 8.34891C11.5178 8.51065 11.7327 8.7422 11.8743 9.01811H12.3637C16.2637 9.01811 19.6875 10.5144 22.005 13.2331ZM6.48935 17.5456C6.45724 17.2342 6.53267 16.9213 6.7031 16.6587C4.9931 13.6962 4.0781 9.94061 5.48247 6.03123C6.48935 3.09311 9.02435 1.10748 11.7731 1.10748C14.7056 1.10748 17.76 3.67436 18.1256 8.62061C17.6681 8.46873 17.0006 8.24561 16.5993 8.16311C16.5 6.54498 15.1331 2.51373 11.895 2.57373C10.7343 2.60561 9.02435 3.15498 8.14497 4.28373C7.05722 5.63115 6.42443 7.28861 6.33747 9.01811C6.13136 11.3896 6.68774 13.7649 7.9256 15.7981C7.99393 15.7731 8.06678 15.7629 8.13935 15.7681H8.19935C8.65287 15.7599 9.09107 15.9322 9.41756 16.2471C9.74405 16.562 9.93208 16.9936 9.94028 17.4472C9.94849 17.9007 9.7762 18.3389 9.46131 18.6654C9.14643 18.9919 8.71474 19.1799 8.26122 19.1881H8.19935C7.75691 19.1865 7.33214 19.0143 7.01357 18.7072C6.695 18.4002 6.50722 17.9821 6.48935 17.54V17.5456Z" fill="white"/>
</g>
</svg>
