<svg width="108" height="109" viewBox="0 0 108 109" fill="none" xmlns="http://www.w3.org/2000/svg">
<g id="icon / ionicons / outline / rocket-outline">
<path id="Vector (Stroke)" fill-rule="evenodd" clip-rule="evenodd" d="M85.131 7.97674C89.6581 7.17329 93.9912 6.99651 97.5093 7.85468C98.2999 8.04453 99.0206 8.45451 99.5879 9.03727C100.149 9.61329 100.537 10.3346 100.708 11.1193C101.534 14.7415 101.363 19.1115 100.557 23.6731C99.7408 28.2927 98.2327 33.3368 96.1919 38.4002C92.1251 48.49 85.8131 58.9715 78.2064 66.5385C75.9707 68.7879 73.5748 70.8709 71.0379 72.7714C71.2041 76.9128 70.7317 81.1981 69.0438 85.0714L69.0422 85.0752C66.3074 91.3303 61.3803 95.258 56.6348 97.6969C51.9031 100.129 47.1472 101.192 44.325 101.646C43.5268 101.775 42.7097 101.718 41.9368 101.481C41.1638 101.244 40.4558 100.832 39.8674 100.278C39.2789 99.7232 38.8259 99.0409 38.5432 98.2834C38.2605 97.5259 38.1558 96.7136 38.2371 95.9092C38.2381 95.8996 38.2391 95.8901 38.2401 95.8805L39.7268 82.3344C39.5763 82.3193 39.4258 82.3034 39.2754 82.2867C37.6188 82.1158 36.0725 81.3762 34.8997 80.1935C34.897 80.1908 34.8943 80.1881 34.8916 80.1854L28.298 73.5918C28.2953 73.5891 28.2926 73.5865 28.2899 73.5838C27.1077 72.4116 26.368 70.8662 26.1966 69.2104C26.179 69.0523 26.1624 68.894 26.1467 68.7357L12.5881 70.2242L12.5742 70.2257L12.5637 70.2267C11.7583 70.3092 10.9446 70.2052 10.1859 69.9226C9.42713 69.64 8.74365 69.1865 8.18842 68.5973C7.63317 68.008 7.22104 67.2989 6.98399 66.5247C6.74695 65.7505 6.69136 64.9321 6.82152 64.133L6.8225 64.127C7.28593 61.3136 8.35409 56.5649 10.7895 51.8359C13.2312 47.0947 17.1574 42.1711 23.4079 39.4228L23.4169 39.4189C27.2919 37.7284 31.6002 37.2567 35.7672 37.4387C37.668 34.9111 39.7495 32.5236 41.9959 30.2953C49.5847 22.7136 60.2248 16.4045 70.381 12.3404C75.4784 10.3006 80.5394 8.79164 85.131 7.97674ZM72.8887 18.6073C63.3373 22.4294 53.5449 28.2972 46.7628 35.0743L46.7539 35.0832C44.3316 37.4856 42.1228 40.0942 40.1526 42.8794C39.4576 43.862 38.2919 44.4001 37.0932 44.2916C32.985 43.9199 29.1846 44.2685 26.1207 45.6037C21.7232 47.5386 18.7762 51.0705 16.7905 54.9264C15.2608 57.8967 14.367 60.939 13.8526 63.2948L28.9522 61.6371C29.9003 61.533 30.8483 61.835 31.5615 62.4683C32.2747 63.1017 32.6866 64.0072 32.6954 64.961C32.7062 66.1364 32.7767 67.3104 32.9068 68.4786C32.9081 68.4904 32.9094 68.5021 32.9106 68.5139C32.9211 68.6189 32.968 68.7169 33.043 68.791L33.057 68.8049L39.6783 75.4263L39.6921 75.4401C39.7663 75.5151 39.8644 75.562 39.9694 75.5725C39.9821 75.5738 39.9947 75.5751 40.0073 75.5765C41.1682 75.706 42.335 75.7765 43.503 75.7879C44.4565 75.7972 45.3615 76.2093 45.9944 76.9225C46.6273 77.6356 46.9291 78.5832 46.8251 79.531L45.1689 94.6203C47.5244 94.1129 50.5738 93.2226 53.5493 91.6934C57.4077 89.7104 60.9355 86.7653 62.8564 82.3737C64.1949 79.301 64.5431 75.5177 64.1904 71.422C64.0874 70.2258 64.6275 69.065 65.6089 68.3735C68.4018 66.4055 71.0173 64.1971 73.4255 61.7735L73.4398 61.7593C80.2538 54.9831 86.1177 45.3382 89.9313 35.8768C91.8313 31.1629 93.1899 26.5737 93.9098 22.4988C94.4934 19.1958 94.6318 16.3719 94.3813 14.1482C92.2867 13.912 89.5594 14.0463 86.3105 14.6229C82.2585 15.342 77.646 16.7036 72.8887 18.6073ZM43.2523 94.9813C43.2509 94.9815 43.2496 94.9818 43.2482 94.982L43.2513 94.9815C43.2516 94.9814 43.2519 94.9814 43.2523 94.9813ZM69.367 33.5693C68.253 33.5693 67.1641 33.8996 66.2379 34.5185C65.3117 35.1374 64.5898 36.0171 64.1636 37.0463C63.7373 38.0755 63.6259 39.208 63.8433 40.3005C64.0607 41.3931 64.5972 42.3966 65.385 43.1842L62.9981 45.5716L65.3878 43.187C65.91 43.7103 66.5302 44.1254 67.213 44.4087C67.8958 44.6919 68.6278 44.8377 69.367 44.8377C70.1062 44.8377 70.8382 44.6919 71.521 44.4087C72.2038 44.1254 72.824 43.7103 73.3462 43.187L73.349 43.1842C74.1368 42.3966 74.6733 41.3931 74.8907 40.3005C75.1081 39.208 74.9967 38.0755 74.5704 37.0463C74.1442 36.0171 73.4223 35.1374 72.4961 34.5185C71.5699 33.8996 70.481 33.5693 69.367 33.5693ZM60.6115 47.9566C58.8802 46.2253 57.701 44.0194 57.2231 41.618C56.7451 39.216 56.9901 36.7262 57.9272 34.4636C58.8643 32.2009 60.4513 30.2669 62.4876 28.9062C64.5239 27.5455 66.9179 26.8193 69.367 26.8193C71.8161 26.8193 74.2101 27.5455 76.2464 28.9062C78.2827 30.2669 79.8697 32.2009 80.8068 34.4636C81.7439 36.7262 81.9889 39.216 81.5109 41.618C81.0332 44.0186 79.8546 46.2238 78.1242 47.9549C76.9751 49.1065 75.6101 50.0201 74.1074 50.6435C72.6047 51.2668 70.9939 51.5877 69.367 51.5877C67.7401 51.5877 66.1293 51.2668 64.6266 50.6435C63.1247 50.0204 61.7603 49.1074 60.6115 47.9566Z" fill="#2BCF7E"/>
<path id="Vector (Stroke)_2" fill-rule="evenodd" clip-rule="evenodd" d="M26.477 74.3388C26.7042 76.1888 25.3885 77.8727 23.5384 78.0998C22.1839 78.2661 20.9237 78.8796 19.9573 79.8431C19.6331 80.1701 19.1097 81.0668 18.593 82.7585C18.1089 84.3436 17.7464 86.2286 17.4827 88.099C17.3182 89.2654 17.1966 90.3932 17.1072 91.3928C18.1075 91.3033 19.2363 91.1816 20.4036 91.0168C22.2743 90.7529 24.1589 90.3901 25.7428 89.9056C27.4378 89.3872 28.3308 88.8627 28.6523 88.541L28.658 88.5352C29.6235 87.5739 30.2368 86.3153 30.399 84.9625C30.6209 83.1118 32.3011 81.7914 34.1519 82.0134C36.0026 82.2353 37.3229 83.9155 37.101 85.7662C36.7582 88.6247 35.4625 91.2844 33.423 93.3162C31.8852 94.8528 29.6581 95.7667 27.7172 96.3604C25.6639 96.9885 23.3961 97.4114 21.3468 97.7006C19.282 97.992 17.3524 98.1594 15.9443 98.2542C15.2379 98.3017 14.6571 98.3314 14.2491 98.3493C14.0449 98.3583 13.8837 98.3643 13.7713 98.3682C13.7151 98.3701 13.6711 98.3714 13.64 98.3724L13.603 98.3734L13.587 98.3739C13.5865 98.3739 13.586 98.3739 13.5 95C10.1261 94.9139 10.1261 94.9134 10.1261 94.9129L10.1266 94.8969L10.1276 94.86C10.1285 94.8289 10.1299 94.7849 10.1318 94.7287C10.1357 94.6164 10.1417 94.4553 10.1506 94.2513C10.1685 93.8435 10.1982 93.2629 10.2457 92.5569C10.3405 91.1495 10.5077 89.2207 10.7988 87.1565C11.0877 85.1076 11.5102 82.8403 12.1374 80.7867C12.7309 78.8436 13.6441 76.6155 15.1784 75.076L15.1842 75.0703C17.2156 73.0417 19.8665 71.7499 22.716 71.4001C24.566 71.173 26.2499 72.4887 26.477 74.3388ZM13.5 95L10.1261 94.9139C10.1025 95.8386 10.4595 96.7324 11.1135 97.3865C11.7675 98.0405 12.6613 98.3975 13.586 98.3739L13.5 95Z" fill="#2BCF7E"/>
</g>
</svg>
