<svg width="24" height="25" viewBox="0 0 24 25" fill="none" xmlns="http://www.w3.org/2000/svg">
<g id="Logos/sass-original">
<path id="Vector" fill-rule="evenodd" clip-rule="evenodd" d="M0.228516 11.0292C0.228516 11.1611 0.267328 11.2481 0.289078 11.3326C0.430828 11.8826 0.735516 12.3545 1.09702 12.785C1.61189 13.3985 2.24245 13.8924 2.88839 14.3568C3.44864 14.7596 4.02033 15.1533 4.58283 15.5531C4.67939 15.6217 4.7707 15.7006 4.87552 15.7848C4.78533 15.8336 4.71033 15.8765 4.63233 15.9161C3.89002 16.2926 3.17583 16.7146 2.51752 17.2259C2.12077 17.5342 1.73714 17.8617 1.4662 18.2898C1.03027 18.9783 0.875953 19.7118 1.20089 20.495C1.29577 20.7237 1.44052 20.9214 1.6447 21.0674C1.71089 21.1147 1.78514 21.1616 1.86258 21.1799C2.06095 21.2266 2.26308 21.2572 2.46389 21.2941L3.03258 21.2938C3.66145 21.2377 4.23389 21.0222 4.7512 20.6652C5.5597 20.1073 6.10439 19.3591 6.33858 18.3989C6.50883 17.7011 6.51576 17.0024 6.31514 16.3077C6.29594 16.2434 6.27379 16.1799 6.24876 16.1176C6.22439 16.0552 6.1957 15.9944 6.16195 15.9166L7.4512 15.1752L7.47051 15.1918C7.44708 15.2684 7.42214 15.3449 7.40095 15.4224C7.24776 15.9819 7.14595 16.5511 7.18251 17.1318C7.22151 17.7506 7.3942 18.3298 7.75645 18.8467C8.04933 19.2648 8.7472 19.2804 9.05845 18.8608C9.16889 18.7117 9.27595 18.5559 9.35639 18.3896C9.56658 17.9555 9.7612 17.5138 9.96201 17.075L9.99708 16.9948C9.98264 17.2025 9.96576 17.3849 9.95808 17.5676C9.94608 17.8527 9.96276 18.1363 10.0603 18.4076C10.1437 18.6397 10.2856 18.8131 10.5515 18.8437C10.7334 18.8645 10.8783 18.7812 11.012 18.6757C11.2191 18.512 11.3908 18.3079 11.5166 18.0759C11.873 17.4213 12.239 16.7707 12.5621 16.0996C12.9116 15.3738 13.2172 14.6268 13.5418 13.8886L13.5954 13.7577C13.6721 14.0591 13.7255 14.3542 13.824 14.6336C13.9383 14.9577 14.0799 15.2742 14.234 15.5819C14.307 15.7272 14.2985 15.8216 14.1975 15.9434C13.7745 16.4534 13.3588 16.9696 12.9427 17.4852C12.8506 17.5991 12.759 17.7149 12.6823 17.8392C12.6357 17.9178 12.6052 18.0047 12.5923 18.095C12.5794 18.1782 12.5992 18.2631 12.6475 18.332C12.6958 18.4009 12.769 18.4484 12.8516 18.4646C13.0183 18.5005 13.1892 18.5126 13.3593 18.5007C13.94 18.458 14.4673 18.2542 14.9334 17.9088C15.5373 17.4614 15.7312 16.8509 15.585 16.1274C15.5454 15.9311 15.4755 15.7402 15.4074 15.551C15.3768 15.4657 15.3748 15.4059 15.4305 15.3264C15.9133 14.6369 16.3258 13.9055 16.7094 13.1572C16.7246 13.1277 16.7401 13.0983 16.7668 13.0668C16.8911 13.7137 17.0782 14.3371 17.4135 14.9028C17.2425 15.0676 17.0731 15.2171 16.92 15.3817C16.5826 15.7443 16.2901 16.1381 16.1375 16.6182C16.0719 16.8252 16.0215 17.0356 16.0507 17.2567C16.0961 17.6 16.3773 17.8231 16.715 17.7449C17.4376 17.5777 18.0615 17.2372 18.5173 16.634C18.824 16.2279 18.852 15.7749 18.7235 15.3003C18.6883 15.1713 18.6465 15.0444 18.6015 14.8964C18.7798 14.8411 18.9536 14.7748 19.1334 14.7337C20.067 14.5207 20.9904 14.5578 21.89 14.8949C22.4152 15.0918 22.8395 15.4213 23.0911 15.9395C23.3985 16.5731 23.2286 17.1742 22.6314 17.5747C22.5757 17.612 22.512 17.6414 22.4658 17.6881C22.4511 17.7052 22.44 17.7253 22.4334 17.7469C22.4268 17.7685 22.4247 17.7913 22.4274 17.8137C22.4313 17.8368 22.4923 17.8657 22.5273 17.8653C22.7236 17.8638 22.8828 17.7609 23.0356 17.6551C23.4185 17.3902 23.6979 17.0338 23.7581 16.5644L23.7699 16.5292L23.7555 16.2236C23.7496 16.2059 23.7598 16.1885 23.7585 16.1752C23.6771 15.4917 23.312 14.9617 22.781 14.5462C22.166 14.0653 21.4398 13.8673 20.6718 13.8359C20.049 13.8091 19.4269 13.9049 18.8409 14.1178C18.6727 14.1787 18.506 14.2509 18.3369 14.3189C18.3142 14.2779 18.2898 14.2385 18.2698 14.1978C18.0961 13.8423 17.8858 13.5026 17.8393 13.0949C17.8063 12.8054 17.7658 12.5163 17.8346 12.23C17.9008 11.9546 17.987 11.6838 18.0682 11.4121C18.11 11.2723 18.0806 11.1939 17.9471 11.1309C17.9006 11.1077 17.8509 11.0914 17.7997 11.0825C17.4716 11.0349 17.148 11.0621 16.8301 11.1545C16.7176 11.1873 16.6359 11.2503 16.611 11.3748C16.5967 11.4462 16.5676 11.5147 16.5474 11.5852C16.4643 11.8783 16.4055 12.1769 16.2712 12.4561C15.9348 13.1564 15.5508 13.8303 15.1578 14.4993C15.1153 14.5715 15.0705 14.6424 15.0168 14.7299C14.8788 14.4412 14.7316 14.1821 14.687 13.8783C14.6366 13.5348 14.5968 13.1919 14.6823 12.851C14.7459 12.5968 14.829 12.3472 14.9055 12.0963C14.9416 11.9771 14.925 11.9144 14.817 11.8516C14.7624 11.8199 14.7007 11.7918 14.6392 11.7826C14.3027 11.7314 13.959 11.7595 13.6353 11.8647C13.5335 11.8977 13.4801 11.9636 13.449 12.0686C13.3575 12.3783 13.2795 12.6956 13.151 12.9901C12.6309 14.1826 12.0958 15.3689 11.5612 16.5551C11.4496 16.8027 11.319 17.0418 11.1931 17.2829C11.1613 17.3441 11.1148 17.3979 11.075 17.4552C11.0431 17.4176 11.0308 17.3917 11.031 17.3658C11.0319 17.2134 11.0137 17.0564 11.0428 16.9091C11.132 16.4633 11.2307 16.0196 11.3386 15.578C11.4268 15.2131 11.5293 14.8516 11.627 14.4892C11.6598 14.3679 11.6604 14.2544 11.5732 14.1524C11.4268 13.9816 11.1208 13.9441 10.9393 14.0758L10.859 14.1211L10.8746 13.9918C10.9128 13.7144 10.9205 13.4381 10.8444 13.1649C10.7495 12.8244 10.5065 12.6284 10.1533 12.6393C9.98864 12.6444 9.81576 12.6725 9.66333 12.7325C9.02226 12.9837 8.52933 13.4287 8.1097 13.964C8.0708 14.0137 8.02259 14.0554 7.96776 14.0866C7.42533 14.3874 6.8812 14.6844 6.33726 14.9825L5.73183 15.3142C5.56945 15.1593 5.42189 14.9986 5.25445 14.8623C4.74314 14.4453 4.22358 14.0386 3.7087 13.6263C3.25233 13.2609 2.8102 12.8802 2.47195 12.3963C2.22033 12.0363 2.05814 11.6424 2.04258 11.1972C2.02289 10.6301 2.18377 10.1118 2.47252 9.62937C2.84189 9.01212 3.3457 8.51675 3.89958 8.06806C4.48552 7.59369 5.11927 7.19094 5.77608 6.82325C6.69501 6.30894 7.6402 5.85369 8.65364 5.55313C9.69276 5.24488 10.7471 5.06844 11.8346 5.19144C12.2621 5.23981 12.6772 5.33769 13.0584 5.54675C13.3503 5.70669 13.5898 5.91613 13.7011 6.2435C13.811 6.56562 13.8076 6.89206 13.7315 7.21925C13.5768 7.88187 13.214 8.42806 12.7575 8.91613C12.0086 9.71619 11.0951 10.2609 10.0666 10.6207C9.47532 10.8278 8.86008 10.9591 8.2357 11.0113C7.72401 11.0542 7.22301 11.0088 6.73851 10.8309C6.4177 10.7129 6.13833 10.5326 5.9137 10.2708C5.87358 10.2239 5.8222 10.1731 5.74739 10.217C5.67408 10.2601 5.66114 10.3299 5.6857 10.4006C5.72677 10.5179 5.76464 10.6402 5.82858 10.7452C5.98927 11.0086 6.22364 11.1997 6.48164 11.3636C6.9772 11.6788 7.53108 11.7847 8.10539 11.8092C8.97689 11.8469 9.8272 11.7168 10.6655 11.483C11.8623 11.1493 12.903 10.5598 13.7375 9.62975C14.4324 8.85538 14.9287 7.98144 15.035 6.92619C15.087 6.41112 15.0316 5.90656 14.7905 5.43669C14.529 4.92763 14.1131 4.54906 13.6158 4.28825C12.8917 3.90856 12.1102 3.6875 11.3036 3.6875H10.4955C9.51858 3.6875 8.57414 3.96744 7.65614 4.30138C6.96126 4.55431 6.27989 4.85281 5.61839 5.18319C4.17783 5.903 2.83627 6.77094 1.73433 7.96438C1.18533 8.55894 0.720516 9.215 0.453141 9.9875C0.372442 10.2181 0.302923 10.4525 0.244828 10.6899M5.46464 17.4423C5.4022 18.2784 5.02327 18.9562 4.40395 19.5052C4.05558 19.8138 3.65602 20.0336 3.19064 20.1108C3.02189 20.1388 2.8492 20.1455 2.68552 20.0756C2.45208 19.9758 2.39977 19.7686 2.39527 19.5479C2.38833 19.1962 2.51152 18.8782 2.68045 18.5756C2.90095 18.1811 3.2242 17.8803 3.56939 17.5994C4.11314 17.1567 4.70302 16.7821 5.30714 16.4285L5.3527 16.4097C5.44608 16.7547 5.49052 17.0954 5.46464 17.4423ZM10.1818 13.8088C10.1377 14.0758 10.0826 14.3429 10.0046 14.6017C9.73495 15.4974 9.38864 16.3653 9.0142 17.2216C8.94501 17.3801 8.84433 17.5246 8.75676 17.6748C8.74187 17.6979 8.72403 17.719 8.7037 17.7374C8.59533 17.8445 8.49258 17.8389 8.43783 17.6988C8.37408 17.5361 8.33489 17.3619 8.30114 17.1896C8.27845 17.0739 8.28389 16.9524 8.27676 16.8339C8.28408 15.9913 8.54114 15.2255 8.97727 14.5126C9.15708 14.2186 9.35283 13.9385 9.65189 13.7525C9.74492 13.6947 9.84558 13.6501 9.95095 13.6201C10.1103 13.5753 10.2082 13.649 10.1818 13.8088ZM13.4 17.909L14.5567 16.5584C14.6049 17.06 13.7523 18.0612 13.4 17.909ZM17.0943 17.0002C17.0126 17.0471 16.9235 17.0808 16.8397 17.1241C16.763 17.1639 16.7377 17.1237 16.7355 17.0577C16.7343 17.0121 16.7402 16.9665 16.7529 16.9226C16.9091 16.3717 17.1965 15.9014 17.6242 15.5189L17.6542 15.5036C17.8576 16.0726 17.6225 16.6976 17.0943 17.0002Z" fill="white"/>
</g>
</svg>
