<svg width="24" height="25" viewBox="0 0 24 25" fill="none" xmlns="http://www.w3.org/2000/svg">
<g id="Logos/tailwindcss-plain">
<path id="Vector" d="M12.0007 5.30035C8.80067 5.30035 6.80136 6.89973 6.00073 10.0998C7.20036 8.50023 8.60079 7.90042 10.2004 8.30035C11.1137 8.52798 11.7664 9.19023 12.4892 9.9241C13.6655 11.1179 15.0272 12.5 18.0007 12.5C21.2006 12.5 23.2001 10.9004 24.0007 7.6996C22.8009 9.3001 21.4007 9.89992 19.8009 9.49998C18.8878 9.27217 18.2359 8.6101 17.5121 7.87623C16.3365 6.68242 14.9752 5.30035 12.0007 5.30035ZM6.00073 12.5C2.80086 12.5 0.801357 14.0995 0.000732422 17.3004C1.20036 15.6999 2.60061 15.1 4.20036 15.5C5.11367 15.7278 5.76636 16.3899 6.48917 17.1237C7.66554 18.3175 9.02717 19.6996 12.0007 19.6996C15.2006 19.6996 17.2001 18.1002 18.0007 14.9002C16.8009 16.4997 15.4007 17.0995 13.8009 16.6996C12.8878 16.472 12.2359 15.8097 11.5121 15.0759C10.3365 13.882 8.97523 12.5 6.00073 12.5Z" fill="white"/>
</g>
</svg>
