<svg width="24" height="25" viewBox="0 0 24 25" fill="none" xmlns="http://www.w3.org/2000/svg">
<g id="Logos/typescript-plain">
<path id="Vector" d="M0.375 12.4831V24.2019H23.8125V0.764374H0.375V12.4831ZM19.2619 11.5456C19.8232 11.6759 20.3334 11.9695 20.7281 12.3894C20.9454 12.6156 21.1343 12.8674 21.2906 13.1394C21.2906 13.1694 20.2781 13.8537 19.6613 14.2362C19.6388 14.2512 19.5487 14.1537 19.4494 14.0056C19.3368 13.8113 19.1768 13.6487 18.9843 13.533C18.7918 13.4172 18.5732 13.3521 18.3488 13.3437C17.6381 13.295 17.1806 13.6681 17.1844 14.2812C17.1785 14.4339 17.2135 14.5854 17.2856 14.72C17.4412 15.0444 17.7319 15.2375 18.6431 15.6312C20.3213 16.3531 21.0394 16.8294 21.4856 17.5062C21.9844 18.2562 22.095 19.4675 21.7575 20.3637C21.3825 21.3387 20.4637 22.0006 19.1644 22.22C18.5709 22.288 17.9713 22.2817 17.3794 22.2012C16.476 22.0547 15.6427 21.6246 15 20.9731C14.7844 20.735 14.3644 20.1144 14.3906 20.0694C14.4591 20.0186 14.5311 19.9728 14.6063 19.9325L15.4688 19.4375L16.1419 19.0475L16.2825 19.2556C16.5198 19.5951 16.8219 19.8844 17.1712 20.1069C17.9212 20.5006 18.945 20.4462 19.4513 19.9906C19.6212 19.8237 19.7273 19.6024 19.7509 19.3653C19.7745 19.1282 19.7143 18.8904 19.5806 18.6931C19.3931 18.4325 19.0181 18.2131 17.97 17.7556C16.7606 17.2344 16.2394 16.9119 15.7631 16.3981C15.4658 16.0591 15.2463 15.6591 15.12 15.2262C15.0258 14.7317 15.0119 14.2252 15.0787 13.7262C15.3281 12.5581 16.2037 11.7425 17.4825 11.5006C18.0747 11.4273 18.6746 11.4438 19.2619 11.5494V11.5456ZM13.7606 12.5281V13.4881H10.7175V22.1562H8.55938V13.4862H5.50875V12.5487C5.50056 12.226 5.50932 11.9031 5.535 11.5812C5.54625 11.5662 7.41 11.5587 9.66 11.5625H13.7494L13.7606 12.5281Z" fill="white"/>
</g>
</svg>
